<?xml version="1.0" encoding="UTF-8" standalone="no"?>
<svg
   width="120"
   height="40"
   viewBox="0 0 120 40"
   fill="#000000"
   version="1.1"
   id="svg9078"
   sodipodi:docname="logo.svg"
   inkscape:version="1.1.2 (0a00cf5339, 2022-02-04)"
   xmlns:inkscape="http://www.inkscape.org/namespaces/inkscape"
   xmlns:sodipodi="http://sodipodi.sourceforge.net/DTD/sodipodi-0.dtd"
   xmlns="http://www.w3.org/2000/svg"
   xmlns:svg="http://www.w3.org/2000/svg">
  <defs
     id="defs9082" />
  <sodipodi:namedview
     id="namedview9080"
     pagecolor="#ffffff"
     bordercolor="#666666"
     borderopacity="1.0"
     inkscape:pageshadow="2"
     inkscape:pageopacity="0.0"
     inkscape:pagecheckerboard="0"
     showgrid="false"
     inkscape:zoom="5.7452426"
     inkscape:cx="26.195587"
     inkscape:cy="15.142964"
     inkscape:window-width="1920"
     inkscape:window-height="994"
     inkscape:window-x="0"
     inkscape:window-y="0"
     inkscape:window-maximized="1"
     inkscape:current-layer="svg9078" />
  <g
     aria-label="Koop"
     id="text14124"
     style="font-size:21.3333px;line-height:1.25"
     transform="matrix(1.237595,0,0,1.237595,-2.615239,-6.4554837)">
    <path
       d="m 2.2636639,22.80649 h 3.749994 v -4.204539 l 1.4999977,-1.893936 3.8636304,6.098475 h 4.484841 l -5.598476,-8.590896 5.499992,-6.9242311 h -4.41666 L 6.2182031,13.851959 H 6.0136579 V 7.2913629 h -3.749994 z"
       style="font-weight:800;font-family:Inter;-inkscape-font-specification:'Inter Ultra-Bold'"
       id="path54773" />
    <path
       d="m 21.824195,23.026187 c 3.659085,0 5.878778,-2.416663 5.878778,-5.999991 0,-3.590903 -2.219693,-6.007566 -5.878778,-6.007566 -3.659085,0 -5.878779,2.416663 -5.878779,6.007566 0,3.583328 2.219694,5.999991 5.878779,5.999991 z m 0.02273,-2.795451 c -1.37121,0 -2.128785,-1.303028 -2.128785,-3.227267 0,-1.931815 0.757575,-3.242419 2.128785,-3.242419 1.325755,0 2.08333,1.310604 2.08333,3.242419 0,1.924239 -0.757575,3.227267 -2.08333,3.227267 z"
       style="font-weight:800;font-family:Inter;-inkscape-font-specification:'Inter Ultra-Bold'"
       id="path54775" />
    <path
       d="m 35.03629,23.026187 c 3.659085,0 5.878779,-2.416663 5.878779,-5.999991 0,-3.590903 -2.219694,-6.007566 -5.878779,-6.007566 -3.659085,0 -5.878779,2.416663 -5.878779,6.007566 0,3.583328 2.219694,5.999991 5.878779,5.999991 z m 0.02273,-2.795451 c -1.37121,0 -2.128784,-1.303028 -2.128784,-3.227267 0,-1.931815 0.757574,-3.242419 2.128784,-3.242419 1.325756,0 2.08333,1.310604 2.08333,3.242419 0,1.924239 -0.757574,3.227267 -2.08333,3.227267 z"
       style="font-weight:800;font-family:Inter;-inkscape-font-specification:'Inter Ultra-Bold'"
       id="path54777" />
    <path
       d="m 42.816578,27.170119 h 3.704539 v -6.24999 h 0.07576 c 0.469696,1.075756 1.515149,2.053027 3.272722,2.053027 2.575753,0 4.651508,-2.015148 4.651508,-5.977263 0,-4.106054 -2.196967,-5.977263 -4.628781,-5.977263 -1.840906,0 -2.84848,1.075756 -3.295449,2.143936 H 46.48324 V 11.170145 H 42.81658 Z M 46.44536,16.988317 c 0,-1.901512 0.787877,-3.075752 2.143936,-3.075752 1.37121,0 2.128784,1.204543 2.128784,3.075752 0,1.878785 -0.757574,3.09848 -2.128784,3.09848 -1.356059,0 -2.143936,-1.212119 -2.143936,-3.09848 z"
       style="font-weight:800;font-family:Inter;-inkscape-font-specification:'Inter Ultra-Bold'"
       id="path54779" />
  </g>
  <g
     aria-label="net.pl"
     id="text42564"
     style="font-size:13.3333px;line-height:1.25"
     transform="translate(0.451207,4.8414159)">
    <path
       d="m 17.88027,32.095913 v -7.333315 h 1.199997 v 1.399997 h 0.01333 q 0.09333,-0.733332 0.599999,-1.133331 0.506665,-0.399999 1.346663,-0.399999 1.106664,0 1.759996,0.679998 0.653331,0.679999 0.653331,1.853329 v 4.933321 h -1.199997 v -4.719988 q 0,-0.839998 -0.426665,-1.279997 -0.413333,-0.453332 -1.133331,-0.453332 -0.746665,0 -1.186663,0.466665 -0.426666,0.466666 -0.426666,1.319997 v 4.666655 z"
       style="font-family:'JetBrains Mono';-inkscape-font-specification:'JetBrains Mono'"
       id="path54800" />
    <path
       d="m 28.653556,32.229246 q -1.29333,0 -2.093328,-0.773331 -0.786665,-0.786665 -0.786665,-2.159995 v -1.733329 q 0,-1.37333 0.786665,-2.146661 0.799998,-0.786665 2.093328,-0.786665 0.866664,0 1.506663,0.346666 0.653331,0.346666 1.01333,0.973331 0.359999,0.626665 0.359999,1.479996 v 1.306663 h -4.586655 v 0.693332 q 0,0.813331 0.466666,1.29333 0.466665,0.466666 1.239997,0.466666 0.666665,0 1.09333,-0.253333 0.439999,-0.266666 0.533332,-0.706665 h 1.199997 q -0.119999,0.919998 -0.893331,1.466663 -0.773331,0.533332 -1.933328,0.533332 z M 26.946893,27.80259 h 3.413325 v -0.373332 q 0,-0.866664 -0.453332,-1.33333 -0.439999,-0.479999 -1.25333,-0.479999 -0.813332,0 -1.266664,0.479999 -0.439999,0.466666 -0.439999,1.33333 z"
       style="font-family:'JetBrains Mono';-inkscape-font-specification:'JetBrains Mono'"
       id="path54802" />
    <path
       d="m 37.386847,32.095913 q -0.906665,0 -1.45333,-0.519999 -0.546665,-0.533332 -0.546665,-1.41333 V 25.855929 H 33.28019 v -1.093331 h 2.106662 v -2.066661 h 1.199997 v 2.066661 h 2.999992 v 1.093331 h -2.999992 v 4.306655 q 0,0.373333 0.213333,0.613332 0.226666,0.226666 0.586665,0.226666 h 2.133328 v 1.093331 z"
       style="font-family:'JetBrains Mono';-inkscape-font-specification:'JetBrains Mono'"
       id="path54804" />
    <path
       d="m 44.653474,32.229246 q -0.493332,0 -0.799998,-0.293333 -0.293332,-0.293332 -0.293332,-0.759998 0,-0.493332 0.293332,-0.799998 0.306666,-0.306666 0.799998,-0.306666 0.493332,0 0.786665,0.306666 0.306666,0.306666 0.306666,0.799998 0,0.466666 -0.306666,0.759998 -0.293333,0.293333 -0.786665,0.293333 z"
       style="font-family:'JetBrains Mono';-inkscape-font-specification:'JetBrains Mono'"
       id="path54806" />
    <path
       d="m 49.880108,34.495907 v -9.733309 h 1.199997 v 1.399997 h 0.01333 q 0.09333,-0.719999 0.626665,-1.119998 0.533332,-0.413332 1.359997,-0.413332 1.106664,0 1.759995,0.733332 0.653332,0.719998 0.653332,1.986661 v 2.146662 q 0,1.266663 -0.653332,1.999994 -0.653331,0.733332 -1.759995,0.733332 -0.826665,0 -1.359997,-0.413332 -0.533332,-0.413333 -0.626665,-1.119998 h -0.04 l 0.02667,1.666663 v 2.133328 z m 2.799993,-3.306658 q 0.759998,0 1.186663,-0.399999 0.426666,-0.399999 0.426666,-1.29333 v -2.133328 q 0,-0.906665 -0.426666,-1.293331 -0.426665,-0.399998 -1.186663,-0.399998 -0.733332,0 -1.173331,0.466665 -0.426665,0.466665 -0.426665,1.29333 v 1.999995 q 0,0.826665 0.426665,1.29333 0.439999,0.466666 1.173331,0.466666 z"
       style="font-family:'JetBrains Mono';-inkscape-font-specification:'JetBrains Mono'"
       id="path54808" />
    <path
       d="m 61.720058,32.095913 q -0.973331,0 -1.559996,-0.559999 -0.573332,-0.573332 -0.573332,-1.506663 v -6.573316 h -2.533327 v -1.093331 h 3.733324 v 7.666647 q 0,0.453333 0.253333,0.719999 0.253333,0.253332 0.679998,0.253332 h 2.266661 v 1.093331 z"
       style="font-family:'JetBrains Mono';-inkscape-font-specification:'JetBrains Mono'"
       id="path54810" />
  </g>
  <polygon
     fill="#ffffff"
     fill-opacity="0.01"
     fill-rule="nonzero"
     id="路径"
     points="26,0 0,0 0,26 26,26 "
     transform="matrix(2.0245296,0,0,2.0245296,65.35792,-5.648142)"
     style="stroke:none;stroke-width:1" />
  <path
     d="m 91.676805,38.216667 13.159445,-13.159443 -4.38648,4.38648 -4.386484,4.386481 z m 0,0 L 69.744401,16.284261 82.903843,3.1248195 91.676805,11.897781"
     id="形状"
     stroke="#212121"
     stroke-linecap="round"
     stroke-linejoin="round"
     stroke-width="3.03679"
     style="fill:none;fill-rule:evenodd;stroke:#000000;stroke-opacity:1" />
  <path
     d="m 84.000463,19.574122 16.449307,-16.4493025 13.15944,13.1594415 -8.77296,8.772963 -8.772964,-8.772963 -6.579721,6.579722 z m 0,0 7.676342,-7.676341"
     id="path55223"
     stroke="#212121"
     stroke-linecap="round"
     stroke-linejoin="round"
     stroke-width="3.03679"
     style="fill:#ffffff;fill-rule:evenodd;stroke:#000000;stroke-opacity:1" />
  <line
     id="line55225"
     stroke="#212121"
     stroke-linecap="round"
     stroke-linejoin="round"
     stroke-width="3.03679"
     x1="96.063286"
     x2="92.773422"
     y1="33.830185"
     y2="30.540325"
     style="fill:none;fill-rule:evenodd" />
  <line
     id="line55227"
     stroke="#212121"
     stroke-linecap="round"
     stroke-linejoin="round"
     stroke-width="3.03679"
     x1="100.44977"
     x2="97.159904"
     y1="29.443707"
     y2="26.153843"
     style="fill:none;fill-rule:evenodd" />
</svg>
